<svg xmlns="http://www.w3.org/2000/svg" xmlns:xlink="http://www.w3.org/1999/xlink" viewBox="0 0 61 61"><defs><style>.cls-1{fill:url(#linear-gradient);}.cls-2{fill:#f8fbff;}.cls-3{fill:none;stroke:#fff;stroke-miterlimit:10;stroke-width:1.6px;}.cls-4{fill:#fff;}</style><linearGradient id="linear-gradient" x1="30.49" y1="31.11" x2="29.78" y2="92.1" gradientUnits="userSpaceOnUse"><stop offset="0" stop-color="#0073bb"/><stop offset="0.18" stop-color="#026eb5"/><stop offset="0.42" stop-color="#0861a3"/><stop offset="0.7" stop-color="#124c86"/><stop offset="1" stop-color="#1f2f5e"/></linearGradient></defs><g id="Layer_2" data-name="Layer 2"><g id="Layer_1-2" data-name="Layer 1"><rect class="cls-1" width="61" height="61" rx="15.82"/><path class="cls-2" d="M46.36,37.94l.68.68A1,1,0,0,1,47,40l-2.56,2.55a.26.26,0,0,0,0,.35L47,45.44a1,1,0,0,1,0,1.37l-.68.68a1,1,0,0,1-1.37,0l-2.55-2.56a.26.26,0,0,0-.35,0l-2.55,2.56a1,1,0,0,1-1.37,0l-.68-.68a1,1,0,0,1,0-1.37l2.56-2.55a.26.26,0,0,0,0-.35L37.49,40a1,1,0,0,1,0-1.37l.68-.68a1,1,0,0,1,1.37,0l2.55,2.56a.26.26,0,0,0,.35,0L45,37.94A1,1,0,0,1,46.36,37.94Z"/><path class="cls-2" d="M24.08,14.83l.68.69a1,1,0,0,1,0,1.36L22.2,19.44a.25.25,0,0,0,0,.34l2.56,2.55a1,1,0,0,1,0,1.37l-.68.68a1,1,0,0,1-1.37,0l-2.56-2.56a.25.25,0,0,0-.34,0l-2.55,2.56a1,1,0,0,1-1.37,0l-.68-.68a1,1,0,0,1,0-1.37l2.56-2.55a.25.25,0,0,0,0-.34l-2.56-2.56a1,1,0,0,1,0-1.36l.68-.69a1,1,0,0,1,1.37,0l2.55,2.56a.25.25,0,0,0,.34,0l2.56-2.56A1,1,0,0,1,24.08,14.83Z"/><circle class="cls-3" cx="19.3" cy="42.51" r="3.84"/><path class="cls-4" d="M20.14,38.67H18.46V35.8a6,6,0,0,1,6-6H38.6a4.31,4.31,0,0,0,4.31-4.31V21.19h1.68V25.5a6,6,0,0,1-6,6H24.45a4.32,4.32,0,0,0-4.31,4.31Z"/><path class="cls-4" d="M48,22l-3.93-6.81a.39.39,0,0,0-.67,0L39.49,22a.38.38,0,0,0,.33.58h7.86A.39.39,0,0,0,48,22Z"/></g></g></svg>