<svg xmlns="http://www.w3.org/2000/svg" xmlns:xlink="http://www.w3.org/1999/xlink" viewBox="0 0 61 61"><defs><style>.cls-1{fill:url(#linear-gradient);}.cls-2{fill:#fff;}</style><linearGradient id="linear-gradient" x1="30.49" y1="31.11" x2="29.78" y2="92.1" gradientUnits="userSpaceOnUse"><stop offset="0" stop-color="#0073bb"/><stop offset="0.18" stop-color="#026eb5"/><stop offset="0.42" stop-color="#0861a3"/><stop offset="0.7" stop-color="#124c86"/><stop offset="1" stop-color="#1f2f5e"/></linearGradient></defs><g id="Layer_2" data-name="Layer 2"><g id="Layer_1-2" data-name="Layer 1"><rect class="cls-1" width="61" height="61" rx="15.82"/><path class="cls-2" d="M38.24,21.66,37,21.46c-.12,0-.24,0-.31-.17-.18-.4-.38-.78,0-1.18a4.81,4.81,0,0,0,.56-.76.82.82,0,0,0,.19-.47.59.59,0,0,0-.15-.39c-.41-.42-.82-.84-1.24-1.24a.52.52,0,0,0-.73,0c-.31.21-.63.42-.92.66a.82.82,0,0,1-1.32-.5c0-.37-.12-.75-.17-1.12a.61.61,0,0,0-.67-.59H30.8a.6.6,0,0,0-.68.57c-.07.4-.15.81-.22,1.21a.56.56,0,0,1-.37.47.78.78,0,0,1-1-.13,7.53,7.53,0,0,0-.84-.61.57.57,0,0,0-.8.06c-.36.36-.72.72-1.09,1.06a.65.65,0,0,0-.08,1c.24.34.46.68.71,1a.51.51,0,0,1,0,.51.82.82,0,0,1-.88.67c-.3,0-.59.09-.89.13a.61.61,0,0,0-.59.66c0,.52,0,1,0,1.56a.61.61,0,0,0,.55.66c.42.07.84.16,1.26.22a.56.56,0,0,1,.44.36.78.78,0,0,1-.13,1,8.9,8.9,0,0,0-.58.79.61.61,0,0,0,.06.89c.36.36.72.71,1.07,1.08a.62.62,0,0,0,.89.07l.89-.62a.78.78,0,0,1,1.31.57c.06.34.13.68.18,1a.65.65,0,0,0,.74.63c.47,0,.94,0,1.42,0a.62.62,0,0,0,.71-.59c.07-.43.17-.86.23-1.3a.43.43,0,0,1,.29-.37.81.81,0,0,1,1.06.12c.25.22.54.38.81.58a.6.6,0,0,0,.88-.07l1.08-1.06a.62.62,0,0,0,.08-.89,10.16,10.16,0,0,0-.67-.91.66.66,0,0,1-.08-.81.63.63,0,0,1,.61-.46c.37,0,.75-.12,1.12-.18a.63.63,0,0,0,.58-.68c0-.49,0-1,0-1.47A.65.65,0,0,0,38.24,21.66Zm-6.77,4.51a3.05,3.05,0,1,1,3.05-3.05A3.05,3.05,0,0,1,31.47,26.17Z"/><path class="cls-2" d="M48.68,33.49a2.22,2.22,0,0,0-1.3-.94,2.25,2.25,0,0,0-1.59.17L42.52,34.4h0a2.4,2.4,0,0,1,.06,1.67,2.44,2.44,0,0,1-1,1.32l-6.67,4a7.07,7.07,0,0,1-5.2.82l-6-1.44.28-1.17,6,1.44a5.91,5.91,0,0,0,4.33-.68l6.67-4a1.23,1.23,0,0,0,.54-.74,1.21,1.21,0,0,0-.12-.91,2.72,2.72,0,0,0-3.59-1.05l-4.84,2.48a2.34,2.34,0,0,1-2.18,0l-3.3-1.75a7.08,7.08,0,0,0-7,.25l1.88,9,1-.21h0a4.54,4.54,0,0,1,1.6-.07l7.49.82a5.77,5.77,0,0,0,4-.94l12-8a1.19,1.19,0,0,0,.33-1.66Z"/><path class="cls-2" d="M14.12,33.68l2.7,12.89,4.65-1-2.7-12.89Zm2.35,2.55-.24-1.17,1.17-.25L17.65,36Z"/></g></g></svg>